<svg xmlns="http://www.w3.org/2000/svg" width="200" height="200" viewBox="0 0 200 200"><g fill="none" stroke="#8f7a0b" stroke-linecap="round" stroke-linejoin="round" stroke-miterlimit="10"><path d="M158.979 101.58h.732l.458-.092.458-.366.275-.458.092-.458-.092-.458-.275-.457-.458-.275-.458-.092h-.732l.183-1.373.092-.641.183-.733.64.275.459.091.55-.183.457-.366.183-.366.092-.55-.183-.55-.275-.366-.458-.274-.641-.183.275-.642.274-.549.641-1.19.55.366.458.183.55.092.549-.184.366-.366.183-.458v-.55l-.183-.457-.366-.366-.55-.458.458-.458.458-.55.458-.457.55-.458.457.64.275.275.55.184h.549l.458-.184.274-.366.275-.55-.091-.549-.184-.366-.457-.641.64-.275.55-.366 1.282-.55.183.641.275.458.366.367.55.091h.458l.457-.275.367-.457.091-.458v-.55l-.274-.64 1.007-.184 1.648-.275v.733l.092.458.366.458.458.366.458.092.458-.092.458-.366.274-.458.092-.458v-.733l1.099.184 1.557.274-.184.641-.091.55.183.458.366.457.367.275h.55l.457-.091.458-.367.275-.458.183-.64.64.274.55.275 1.19.64-.366.642-.274.366v.55l.183.55.366.365.458.184h.55l.457-.184.367-.274.457-.641.458.458.55.457.916 1.008-.642.458-.274.366-.183.458v.55l.183.457.366.366.55.184.457-.092.458-.183.641-.366.275.549.366.641.55 1.19-.641.184-.458.274-.366.367-.092.55v.549l.275.366.458.366.457.183.55-.091.64-.275.184.733.092.64.091.642.092.732h-.733l-.458.092-.458.275-.366.457-.091.458.091.458.366.458.458.366.458.092h.733l-.183 1.282-.275 1.374-.641-.275h-.55l-.457.091-.458.367-.275.458v.458l.092.549.366.366.458.275.64.183-.549 1.282-.64 1.19-.642-.457-.458-.183-.457-.092-.55.183-.366.367-.183.457v.55l.183.458.274.366.642.458-.916 1.007-1.008.916-.457-.55-.367-.366-.458-.183h-.55l-.457.183-.366.367-.183.549v.55l.274.457.367.55-.55.366-.64.275-1.191.55-.183-.642-.275-.458-.458-.366-.458-.092-.55.092-.366.183-.366.458-.183.458.091.55.184.64-.641.184-.641.091-.641.092-.733.091v-.732l-.092-.458-.274-.458-.458-.275-.458-.091-.458.091-.458.275-.366.458-.092.458v.732l-1.282-.183-1.373-.275.274-.64v-.55l-.091-.458-.367-.458-.457-.183-.458-.092-.55.092-.366.366-.275.458-.183.641-.641-.275-.641-.274-1.19-.641.457-.55.184-.458.091-.549-.275-.55-.274-.366-.458-.183h-.55l-.55.183-.274.367-.458.549-.55-.458-.457-.458-.458-.55-.458-.457.55-.458.366-.366.183-.458v-.55l-.183-.457-.366-.367-.55-.183-.55.092-.457.183-.55.458-.366-.641-.275-.55-.549-1.282.641-.183.458-.275.275-.366.183-.55-.092-.457-.183-.458-.458-.367-.55-.091h-.457l-.641.275-.183-.733-.092-.641-.092-.641-.091-.641M136.726 153.87v-.733l.092-.641.64.091h.55l.458-.275.366-.366.184-.458v-.458l-.275-.549-.366-.366-.458-.183-.733-.092.183-.641.183-.641.458-1.282.641.366.458.092h.55l.457-.275.367-.458.091-.458v-.55l-.274-.457-.458-.275-.641-.366.366-.55.458-.549.366-.55.458-.549.458.55.458.274.458.092.55-.092.457-.274.275-.458.091-.458-.091-.55-.275-.458-.55-.457 1.1-.825.549-.366.55-.366.366.64.274.367.458.275h.55l.458-.092.366-.274.275-.55.091-.458-.183-.55-.275-.64.641-.183.641-.275 1.282-.366.092.732.183.458.366.366.458.275h.55l.458-.183.366-.366.275-.458v-.55l-.092-.64.641-.092h1.374l.64.091-.09.641v.55l.182.458.458.366.458.183h.458l.55-.275.366-.366.183-.458.091-.732.641.183.641.183 1.283.458-.367.64-.091.55v.458l.274.55.458.274.458.092h.55l.457-.275.275-.366.366-.641.825.55 1.282 1.007-.458.457-.275.458-.091.55.091.458.275.458.366.274.55.092.549-.092.366-.274.55-.55.64.916.917 1.282-.641.366-.367.275-.274.458v.55l.091.457.275.458.458.275h.55l.549-.092.549-.366.275.64.274.642.367 1.282-.733.092-.458.183-.458.366-.183.55v.457l.183.458.367.366.458.275h.457l.733-.091v.64l.092.733-.092 1.282-.733-.091h-.457l-.458.274-.367.367-.183.458v.55l.183.457.458.366.458.183.733.092-.183.641-.184.641-.549 1.282-.55-.366-.549-.092-.55.092-.457.183-.275.458-.091.458v.55l.274.457.367.275.64.366-.366.55-.366.549-.366.55-.458.549-.55-.55-.366-.274-.55-.092-.549.092-.366.274-.275.458-.091.458.091.55.275.457.458.458-1.008.825-1.099.732-.366-.55-.275-.457-.457-.275h-.55l-.458.092-.458.366-.274.458v.55l.091.457.367.641-1.283.458-1.282.366-.091-.732-.183-.458-.367-.366-.55-.275h-.457l-.458.183-.458.366-.183.458v.55l.092.64-1.374.092-1.282-.091.092-.641v-.55l-.275-.458-.366-.366-.458-.183h-.55l-.458.275-.366.366-.183.458-.092.732-.64-.183-.642-.183-1.282-.458.275-.64.183-.459-.091-.55-.275-.457-.366-.366-.458-.092h-.55l-.458.275-.274.458-.367.55-.55-.367-.549-.366-.549-.367-.55-.458.55-.458.275-.457.091-.55-.091-.458-.275-.458-.458-.274-.55-.092-.457.092-.458.274-.458.55-.824-1.1-.824-1.098.64-.366.459-.275.274-.458v-.55l-.091-.457-.367-.458-.457-.183-.55-.092-.458.092-.64.366-.184-.64-.275-.642-.366-1.282.733-.092.458-.183.366-.366.275-.458v-.55l-.184-.457-.366-.367-.458-.274h-.55l-.64.091-.092-.64v-.642M83.155 25.756h.732l.458-.092.458-.366.275-.458.091-.458-.091-.458-.275-.458-.458-.274-.458-.092h-.732l.183-1.099.275-1.556.64.183.55.091.458-.183.458-.366.183-.366.092-.55-.092-.458-.366-.458-.458-.274-.641-.184.275-.64.274-.55.641-1.19.55.366.458.275h.55l.549-.184.366-.366.183-.458v-.55l-.183-.457-.366-.366-.55-.458.458-.458.458-.55 1.007-.915.458.64.275.275.55.184h.549l.458-.184.274-.366.275-.55-.092-.457-.183-.458-.458-.641.641-.275.55-.366 1.282-.55.183.641.275.458.366.367.55.091h.457l.458-.275.367-.457.091-.458v-.55l-.275-.64.641-.184.733-.092.641-.091.641-.092v.733l.092.458.366.458.458.366.458.092.458-.092.457-.366.275-.458.092-.458v-.733l1.373.183 1.374.275-.275.641-.091.55.183.458.366.457.366.275h.55l.458-.091.458-.367.274-.458.184-.64 1.19.549 1.19.64-.366.642-.275.458v.458l.184.55.366.365.458.184h.55l.457-.184.366-.274.458-.641 1.008.915.915 1.008-.64.458-.275.366-.184.458v.55l.184.457.366.366.55.184h.549l.366-.275.641-.367.275.55.366.641.55 1.19-.641.184-.458.274-.367.458-.091.458v.55l.275.366.457.366.458.183.55-.091.64-.183.184.64.092.642.091.64.092.733h-.733l-.458.092-.458.274-.366.458-.092.458.092.458.366.458.458.366.458.092h.733l-.183 1.282-.275 1.374-.641-.275h-.55l-.458.091-.457.367-.275.458v.457l.091.55.367.366.458.275.64.183-.274.641-.275.641-.64 1.19-.642-.457-.366-.183-.55-.092-.55.275-.365.274-.184.458v.55l.184.55.274.274.641.458-.457.55-.458.457-.55.458-.458.458-.458-.55-.366-.366-.458-.183h-.55l-.457.183-.366.366-.184.55v.55l.275.457.367.55-.55.366-.641.275-1.19.55-.184-.642-.274-.458-.458-.274-.458-.184-.55.092-.366.183-.366.458-.183.55.091.457.275.641-.733.183-.64.092-.642.092-.732.091v-.732l-.092-.458-.275-.458-.457-.275-.458-.091-.458.091-.458.275-.366.458-.092.458v.732l-1.282-.183-.641-.092-.733-.183.275-.64v-.459l-.091-.549-.367-.458-.458-.183-.457-.092-.55.184-.366.274-.275.458-.183.641-.641-.275-.641-.274-1.19-.641.457-.55.183-.458.092-.55-.275-.549-.274-.366-.458-.183h-.55l-.55.183-.274.366-.458.55-.55-.458-.457-.458-.458-.458-.458-.55.55-.457.366-.275.183-.55v-.549l-.183-.458-.366-.274-.55-.275-.55.092-.457.183-.55.458-.366-.641-.275-.55-.55-1.282.642-.183.458-.275.366-.366.092-.55-.092-.457-.183-.458-.458-.367-.458-.091h-.55l-.64.275-.183-1.008-.275-1.648M83.155 177.404h.732l.458-.092.458-.366.275-.458.091-.458-.091-.457-.275-.458-.458-.275-.458-.092h-.732l.183-1.373.275-1.374.64.275h.55l.458-.092.458-.366.183-.366.092-.55-.092-.55-.366-.366-.458-.274-.641-.183.275-.641.274-.641.641-1.1.55.367.458.183.55.092.549-.183.366-.367.183-.458v-.55l-.183-.457-.366-.366-.55-.458.458-.458.458-.55.458-.457.55-.458.457.64.275.275.55.184h.549l.458-.184.274-.366.275-.55-.092-.549-.183-.366-.458-.641.641-.275.55-.366 1.282-.55.183.642.275.457.366.367.55.091h.457l.458-.274.367-.458.091-.458v-.55l-.275-.64.641-.184.733-.091.641-.092.641-.092v.733l.092.458.366.458.458.366.458.092.458-.092.457-.366.275-.458.092-.458v-.733l1.373.184.641.091.733.183-.275.641-.091.55.183.458.366.458.366.274h.55l.458-.091.458-.367.274-.457.184-.642.64.275.55.275 1.19.641-.366.641-.275.366v.55l.184.55.366.365.458.184h.55l.457-.184.366-.274.458-.641.458.458.55.457.458.55.457.458-.64.458-.275.366-.184.458v.55l.184.457.366.367.55.183.549-.092.366-.183.641-.366.275.55.366.549.55 1.282-.641.183-.458.274-.367.367-.091.55v.549l.275.366.457.366.458.092h.55l.64-.275.184 1.007.275 1.74h-.733l-.458.092-.458.275-.366.458-.092.457.092.458.366.458.458.366.458.092h.733l-.183 1.007-.275 1.649-.641-.275h-.55l-.458.092-.457.366-.275.458v.458l.091.549.367.366.458.275.64.183-.274.641-.275.641-.64 1.1-.642-.367-.366-.183-.55-.092-.55.183-.365.367-.184.457v.55l.184.458.274.366.641.458-.457.458-.458.55-1.008.915-.458-.55-.366-.366-.458-.183h-.55l-.457.183-.366.367-.184.549v.55l.275.457.367.55-.55.366-.641.275-1.19.55-.184-.642-.274-.458-.458-.366-.458-.091-.55.091-.366.183-.366.458-.183.458.091.55.275.64-.733.184-.64.091-.642.092-.732.091v-.732l-.092-.458-.275-.458-.457-.275-.458-.091-.458.091-.458.275-.366.458-.092.458v.732l-1.282-.183-1.374-.275.275-.64v-.55l-.091-.458-.367-.458-.458-.183-.457-.091-.55.091-.366.366-.275.458-.183.641-1.282-.55-1.19-.64.457-.55.183-.458.092-.549-.275-.55-.274-.366-.458-.183h-.55l-.55.183-.274.367-.458.549-1.007-.916-.916-1.007.55-.458.366-.366.183-.458v-.55l-.183-.457-.366-.367-.55-.183-.55.092-.457.183-.55.366-.366-.55-.275-.549-.55-1.282.642-.183.458-.275.366-.366.092-.55-.092-.457-.183-.458-.458-.366-.458-.092h-.55l-.64.275-.183-.733-.092-.64-.092-.642-.091-.641M29.583 45.261l.641.092h.55l.458-.275.366-.366.183-.458v-.458l-.275-.55-.366-.366-.458-.183-.732-.091.183-.641.183-.641.458-1.282.64.366.459.091h.55l.457-.274.366-.458.092-.458v-.55l-.275-.457-.458-.275-.55-.366.367-.55.367-.55.366-.549.458-.458.458.458.457.275.55.092.458-.092.458-.275.274-.366.092-.55-.092-.549-.274-.366-.55-.55 1.1-.824 1.098-.732.366.64.275.367.458.275h.55l.457-.092.367-.275.274-.55.092-.457-.092-.55-.366-.549 1.282-.55 1.282-.366.092.733.183.458.366.458.458.183h.55l.457-.183.367-.367.274-.458v-.457l-.091-.733 1.282-.092 1.373.092-.091.733v.457l.275.458.366.367.458.183h.458l.55-.183.365-.458.184-.458.091-.733.641.183.641.184 1.282.55-.366.549-.092.549v.458l.275.55.458.274.458.092h.55l.457-.275.275-.366.366-.641.55.366.549.366.55.366.549.458-.55.55-.274.366-.092.55.092.549.274.366.458.275.458.092.55-.092.458-.275.457-.458.825 1.008.732 1.099-.64.366-.367.275-.275.458v.549l.092.458.274.458.55.274h.458l.55-.091.64-.366.183.64.275.642.366 1.282-.732.091-.458.183-.366.367-.275.55v.457l.183.458.366.366.458.275h.55l.64-.092.092.641v1.374l-.091.641-.641-.092h-.55l-.458.275-.366.366-.183.458v.55l.275.458.366.366.458.183.732.092-.183.64-.183.642-.458 1.282-.64-.275-.55-.183-.458.091-.55.275-.274.367-.092.457v.55l.275.458.366.274.641.367-.366.55-.366.549-.367.55-.458.549-.457-.55-.458-.275-.55-.091-.458.091-.458.275-.274.458-.092.458.092.55.274.457.55.458-1.099.824-.55.458-.549.366-.366-.64-.275-.459-.458-.274h-.55l-.457.091-.458.367-.275.458v.549l.092.458.366.64-.64.184-.642.275-1.282.366-.091-.733-.184-.457-.366-.367-.55-.274h-.457l-.458.183-.366.366-.275.458v.55l.091.64-.64.092h-1.374l-.641-.092.091-.64v-.55l-.274-.458-.367-.366-.458-.183h-.549l-.458.274-.366.367-.183.457-.092.733-.641-.183-.641-.183-1.282-.458.366-.641.092-.458-.092-.55-.274-.457-.367-.367-.458-.091h-.55l-.457.274-.275.458-.366.641-.824-.55-1.374-1.098.55-.458.274-.458.092-.55-.092-.457-.274-.458-.458-.275-.458-.091-.55.091-.457.275-.458.55-.641-.916-.916-1.282.55-.367.457-.274.275-.458v-.55l-.092-.457-.366-.367-.458-.275-.55-.091-.457.183-.641.275-.183-.641-.275-.641-.366-1.282.732-.092.458-.183.366-.366.275-.458v-.55l-.183-.458-.366-.366-.458-.275h-.55l-.64.092-.092-.641v-.641l.091-1.374M29.583 152.496l.641.091h.55l.458-.275.366-.366.183-.458v-.458l-.275-.549-.366-.366-.458-.183-.732-.092.183-.641.183-.641.458-1.282.64.366.459.092h.55l.457-.275.366-.458.092-.458v-.55l-.275-.457-.458-.275-.55-.366.367-.55.367-.549.366-.55.458-.549.458.55.457.274.55.092.458-.092.458-.274.274-.458.092-.458-.092-.55-.274-.458-.55-.457 1.1-.825 1.098-.732.366.64.275.367.458.275h.55l.457-.092.367-.274.274-.55.092-.458-.092-.55-.366-.64.641-.183.641-.275 1.282-.366.092.732.183.458.366.366.458.275h.55l.457-.183.367-.366.274-.458v-.55l-.091-.64.64-.092h1.374l.641.091-.091.641v.55l.275.458.366.366.458.183h.458l.55-.275.365-.366.184-.458.091-.732.641.183.641.183 1.282.458-.366.64-.092.55v.458l.275.55.458.274.458.092h.55l.457-.275.275-.366.366-.641.55.366.549.366.55.367.549.458-.55.457-.274.458-.092.55.092.458.274.458.458.274.458.092.55-.092.458-.274.457-.55.825 1.099.366.55.366.549-.64.366-.367.275-.275.458v.55l.092.457.274.458.55.275h.458l.55-.092.64-.366.183.64.275.642.366 1.282-.732.092-.458.183-.366.366-.275.55v.457l.183.458.366.366.458.275h.55l.64-.091.092.64v1.374l-.091.641-.641-.091h-.55l-.458.274-.366.367-.183.458v.55l.275.457.366.366.458.183.732.092-.183.641-.183.641-.458 1.282-.64-.366-.55-.092-.458.092-.55.183-.274.458-.092.458v.55l.275.457.366.275.641.366-.55.824-1.007 1.374-.457-.55-.458-.274-.55-.092-.458.092-.458.274-.274.458-.092.458.092.55.274.457.55.458-.916.641-1.282.916-.366-.55-.275-.457-.458-.275h-.55l-.457.092-.458.366-.275.458v.55l.092.457.366.641-.64.183-.642.275-1.282.366-.091-.732-.184-.458-.366-.366-.55-.275h-.457l-.458.183-.366.366-.275.458v.55l.091.64-.64.092h-.733l-1.282-.091.091-.641v-.55l-.274-.458-.367-.366-.458-.183h-.549l-.458.275-.366.366-.183.458-.092.732-.641-.183-.641-.183-1.282-.458.366-.64.092-.459-.092-.55-.274-.457-.367-.366-.458-.092h-.55l-.457.275-.275.458-.366.55-.55-.367-.549-.366-.55-.367-.549-.458.55-.458.274-.457.092-.55-.092-.458-.274-.458-.458-.274-.458-.092-.55.092-.457.274-.458.55-.824-1.1-.733-1.098.55-.366.457-.275.275-.458v-.55l-.092-.457-.366-.458-.458-.183-.55-.092-.457.092-.641.366-.458-1.282-.366-1.282.732-.092.458-.183.366-.366.275-.458v-.55l-.183-.457-.366-.367-.458-.274h-.55l-.64.091-.092-1.282.091-1.373M39.748 99.29l-.366.458-.092.458.092.458.366.458.458.366.458.092h.733l-.184 1.282-.091.641-.183.733-.641-.275h-.55l-.458.091-.458.367-.274.458v.458l.091.549.367.366.457.275.642.183-.275.641-.275.641-.64 1.19-.642-.457-.366-.183-.55-.092-.55.183-.365.367-.184.457v.55l.184.458.274.366.641.458-.458.458-.457.55-.55.457-.458.458-.458-.55-.366-.366-.458-.183h-.55l-.457.183-.366.367-.184.549.092.55.183.457.366.55-.549.366-.641.275-1.19.55-.184-.642-.274-.458-.367-.366-.55-.092-.549.092-.366.183-.366.458-.183.458.091.55.275.64-1.007.184-1.74.274v-.732l-.092-.458-.275-.458-.457-.275-.458-.091-.458.091-.458.275-.366.458-.092.458v.732l-1.007-.183-1.649-.275.275-.64v-.55l-.092-.458-.366-.458-.458-.183-.458-.092-.549.092-.366.366-.275.458-.183.641-.641-.275-.641-.274-1.19-.641.457-.55.183-.458.092-.549-.183-.55-.367-.366-.457-.183h-.55l-.458.183-.366.367-.458.549-.458-.458-.55-.458-.915-1.007.55-.458.366-.366.183-.458v-.55l-.183-.457-.367-.367-.549-.183-.55.092-.457.183-.55.458-.366-.641-.275-.55-.55-1.282.642-.183.458-.275.366-.366.092-.55-.092-.457-.183-.458-.458-.367-.458-.091h-.55l-.64.275-.184-.733-.091-.641-.092-.641-.091-.641h.732l.458-.092.458-.366.275-.458.091-.458-.091-.458-.275-.457-.458-.275-.458-.092h-.732l.183-1.373.275-1.374.64.275.55.091.458-.183.458-.366.183-.366.092-.55-.092-.55-.366-.366-.458-.274-.641-.183.55-1.191.64-1.19.55.366.458.183.549.092.55-.184.366-.366.183-.458v-.55l-.183-.457-.367-.366-.549-.458.916-1.008 1.007-.915.458.64.366.275.458.184h.55l.457-.184.367-.366.183-.55-.092-.549-.183-.366-.458-.641.641-.275.55-.366 1.282-.55.183.641.275.458.366.367.55.091h.457l.458-.275.366-.457.092-.458v-.55l-.275-.64.733-.184.641-.091.641-.092.641-.092v.733l.092.458.366.458.458.366.458.092.458-.092.457-.366.275-.458.092-.458v-.733l1.373.184 1.374.274-.275.641-.091.55.183.458.366.457.366.275h.55l.55-.091.366-.367.274-.458.183-.64.641.274.55.275 1.19.64-.366.642-.183.366-.092.55.184.55.366.365.458.184h.55l.457-.184.366-.274.458-.641.458.458.55.457.457.55.458.458-.64.458-.275.366-.184.458v.55l.184.457.366.366.55.184.549-.092.366-.183.641-.366.275.549.366.641.55 1.19-.642.184-.457.274-.367.367-.091.55v.549l.274.366.458.366.458.183.55-.091.64-.275.184.733.091.64.092.642.092.732h-.733l-.458.092-.458.275M136.726 46.635v-.733l.092-.64.64.09h.55l.458-.274.366-.366.184-.458v-.458l-.275-.55-.366-.366-.458-.183-.733-.091.183-.641.183-.641.458-1.282.641.366.458.091h.55l.457-.274.367-.458.091-.458v-.55l-.274-.457-.458-.275-.641-.366.55-.825 1.098-1.282.458.458.458.275.458.092.55-.092.457-.275.275-.366.091-.55-.091-.549-.275-.366-.55-.55.916-.64 1.282-.916.367.64.274.367.458.275h.55l.458-.092.366-.275.275-.55.091-.457-.183-.55-.275-.549.641-.275.641-.274 1.282-.367.092.733.183.458.366.458.458.183h.55l.458-.183.366-.367.275-.458v-.457l-.092-.733.641-.092h.641l1.374.092-.092.733v.457l.183.458.458.367.458.183h.458l.55-.183.366-.458.183-.458.091-.733.641.183.641.184 1.283.55-.367.549-.091.549v.458l.274.55.458.274.458.092h.55l.457-.275.275-.366.366-.641.55.366.55.366.549.366.458.458-.458.55-.275.366-.091.55.091.549.275.366.366.275.55.092.549-.092.366-.275.55-.458.824 1.008.733 1.099-.641.366-.367.275-.274.458v.549l.091.458.275.458.458.274h.55l.549-.091.549-.366.55 1.282.366 1.282-.733.091-.458.183-.458.367-.183.55v.457l.183.458.367.366.458.275h.457l.733-.092.092 1.374-.092 1.282-.733-.092h-.457l-.458.275-.367.366-.183.458v.55l.183.458.458.366.458.183.733.092-.183.64-.184.642-.549 1.282-.55-.275-.549-.183-.55.091-.457.275-.275.367-.091.457v.55l.274.458.367.274.64.367-.366.55-.366.549-.366.55-.458.549-.55-.55-.366-.275-.55-.091-.549.091-.366.275-.275.458-.091.458.091.55.275.457.458.458-1.008.824-1.099.824-.366-.64-.275-.459-.457-.274h-.55l-.458.091-.458.367-.274.458v.549l.091.458.367.64-.642.184-.64.275-1.283.366-.091-.733-.183-.457-.367-.367-.55-.274h-.457l-.458.183-.458.366-.183.458v.55l.092.64-.641.092h-1.374l-.64-.092.09-.64v-.55l-.274-.458-.366-.366-.458-.183h-.55l-.458.274-.366.367-.183.457-.092.733-.64-.183-.642-.183-1.282-.458.275-.641.183-.458-.091-.55-.275-.457-.366-.367-.458-.091h-.55l-.458.274-.274.458-.367.641-.55-.366-.549-.458-.549-.366-.55-.458.55-.458.275-.458.091-.55-.091-.457-.275-.458-.458-.275-.55-.091-.457.091-.458.275-.458.55-.824-1.1-.458-.549-.366-.55.64-.366.459-.274.274-.458v-.55l-.091-.457-.367-.367-.457-.275-.55-.091-.458.183-.64.275-.184-.641-.275-.641-.366-1.282.733-.092.458-.183.366-.366.275-.458v-.55l-.184-.458-.366-.366-.458-.275h-.55l-.64.092-.092-.641v-.641" stroke-width="1.18296"/><path d="M131.415 42.697l-.092.367-.091.274v.733l-.092.275-.091 1.098v2.29l.091 1.099.092.366v.641l.091.275v.091l.092.275v.366l.091.275.092.366.275 1.1.274 1.007.367 1.099.458 1.007.091.366.183.275.092.275.183.274.183.367.092.274.183.275.183.275.733 1.282.915 1.19.916 1.1.092.09.183.184.275.275.183.274.274.184.184.274.274.183.275.275.183.183.092.092 1.099.916 1.19.824 1.282.824.275.183.275.183h.091l.367.183.274.184-7.234 12.088-3.846 4.853-4.03 4.03-4.212 3.296-4.304 2.473-4.487 1.74-4.762.824 2.656-4.762 1.923-5.312 1.099-5.86.366-6.228-.366-6.685-1.1-7.142-1.922-7.693-2.565-8.058.367-.275.458-.183.366-.275.458-.275.275-.183.274-.183.275-.183.275-.183.274-.183.275-.183.275-.275.183-.183.916-.733.824-.733.733-.824.732-.824.183-.275.183-.274h.092l.183-.275.183-.275.183-.275.184-.274.183-.275.183-.275.55-.915.549-1.008.55-1.007.366-1.007.183-.367.091-.274.092-.367.091-.274.092-.367.092-.275.091-.366.092-.275.274-1.098.184-1.1.183-1.098.091-1.1V23.1l-.091-1.19-.183-1.1-.184-1.098-.274-1.099-.092-.275-.091-.366-.092-.275-.092-.366-.091-.275-.092-.274-.091-.367-.183-.274-.367-1.1-.55-1.007-.549-.915-.55-1.008-.182-.275-.183-.274-.184-.275-.183-.275-.183-.274-.183-.275h-.092l-.183-.275-.183-.183-.732-.916-.733-.824-.824-.733-.916-.732-.183-.183-.275-.183-.275-.275-.274-.183-.275-.183-.275-.184-.274-.183-.275-.183-1.008-.55-.915-.549-1.008-.55-1.099-.366-.274-.183-.275-.091-.366-.092-.275-.091-.366-.092-.275-.092-.366-.091-.275-.092-1.099-.274-1.099-.184-1.19-.183-1.1-.091h-2.655l-1.099.091-1.099.183-1.099.184-1.098.274-.275.092-.367.091-.274.092-.367.092-.274.091-.367.092-.274.091-.367.183-1.007.458-1.007.458-1.008.55-.915.55-.275.182-.275.183-.274.184-.275.183-.275.183-.275.275-.274.183-.275.183-.824.732-.824.733-.733.824-.733.916-.183.183-.275.275-.183.275-.183.274-.183.275-.183.275-.183.274-.183.275-.641 1.008-.458.915-.55 1.008-.366 1.099-.183.274-.092.367-.091.274-.092.275-.092.366-.091.275-.092.366-.091.275-.275 1.099-.183 1.099-.183 1.19-.092 1.1v2.655l.092 1.099.183 1.099.183 1.099.275 1.098.091.275.092.366.091.275.092.367.092.274.091.367.092.274.183.367.366 1.007.55 1.007.458 1.008.64.915.184.275.183.275.183.274.183.275.183.275.183.275.275.274.183.275.733.824.733.824.824.733.824.733.275.183.274.275.275.183.275.183.275.183.274.183.275.183.275.183.915.641 1.008.458 1.007.55 1.007.366.367.183.274.092.367.091.274.092.367.092.274.091v.092h.367l.275.091 1.465.367 1.373.274 1.466.092h1.098l.367.091.366-.091h1.099l1.374-.092 1.465-.274 1.465-.367.366-.091.275-.092h.092l.366-.091.275-.092 3.48 13.645.732 6.135v5.77l-.641 5.22-1.374 4.853-1.923 4.395-2.747 3.938-1.557-5.311-2.38-5.037-3.297-4.854-4.121-4.761-5.037-4.396-5.86-4.304-6.686-4.12-7.6-3.847.091-.458.183-.458.092-.458.092-.458.091-.366.092-.275v-.366l.091-.275v-.366l.092-.366v-.275l.091-.366.092-1.1v-2.289l-.092-1.098-.091-.275v-.366l-.092-.367v-.274l-.091-.367v-.274l-.092-.367-.091-.275-.275-1.098-.275-1.1-.366-1.098-.458-1.008-.183-.274-.092-.367-.183-.274-.092-.275-.183-.275-.183-.366-.091-.275-.184-.274-.64-.916-.642-.916-.64-.916-.733-.824-.183-.275-.275-.274-.183-.184-.275-.274-.275-.275-.183-.183-.275-.275-.183-.183-.916-.733-.824-.64-1.007-.642-.916-.64-.274-.184-.275-.091-.367-.184-.274-.183-.275-.091-.275-.183-.366-.092-.275-.183-1.007-.458-1.099-.366-1.007-.275-1.1-.275-.365-.091h-.367l-.274-.092-.367-.091h-.275l-.366-.092h-.275l-.366-.092h-1.099l-1.19-.091-1.1.091h-1.098l-.366.092h-.275l-.366.092h-.275l-.366.091-.367.092h-.274l-.367.091-1.099.275-1.007.275-1.099.458-1.007.366-.366.183-.275.092-.275.183-.275.091-.366.183-.275.184-.274.091-.275.183-.916.641-1.007.641-.824.641-.916.733-.183.183-.275.275-.275.183-.183.275-.275.274-.183.184-.274.274-.184.275-.732.824-.641.916-.641.916-.641.916-.183.274-.092.275-.183.366-.183.275-.092.275-.183.274-.183.367-.092.274-.458 1.008-.366 1.099-.275 1.099-.274 1.098-.092.275-.092.367v.274l-.091.367v.274l-.092.367v.366l-.091.275-.092 1.098v2.29l.092 1.099.091.366v.275l.092.366v.275l.091.366v.366l.092.275.092.366.274 1.1.275 1.007.366 1.099.458 1.007.092.366.183.275.183.275.092.274.183.367.183.274.092.275.183.275.64 1.007.642.916.64.916.733.824.184.183.274.275.183.274.275.184.183.274.275.183.275.275.183.183.916.733.824.641.916.641 1.007.641.275.183.274.183.275.092.366.183.275.183.275.092.275.183.366.091 1.007.458 1.1.367 1.006.274 1.1.275.366.092.274.091h.367l.366.092h.275l.366.091h.275l.366.092 1.099.092h2.29l1.098-.092.366-.092h.275l.366-.091h.275l.367-.092h.274l.367-.091.366-.092 1.007-.275 1.1-.274 1.098-.367 1.007-.458.275-.091.366-.183.275-.092.275-.183.366-.183.275-.092.275-.183.274-.183 1.19-.733 1.191-.915 1.19-.916.092-.092.183-.183.275-.275.183-.183.275-.274.275-.184.183-.274.275-.275.183-.183.091-.092.916-1.099.824-1.19.824-1.282.184-.275.091-.275.092-.091.183-.366.183-.275 12.088 7.234 4.853 3.846 4.03 4.03 3.296 4.212 2.473 4.304 1.648 4.487.916 4.762-4.853-2.655-5.312-1.924-5.769-1.098-6.227-.367-6.685.367-7.235 1.098-7.6 1.832-8.059 2.656-.275-.367-.183-.458-.274-.457-.275-.367-.183-.274-.183-.275-.184-.275-.183-.275-.183-.274-.183-.275-.275-.275-.183-.183-.733-.916-.732-.824-.824-.732-.916-.733-.183-.183-.275-.275-.275-.183-.274-.183-.275-.183-.275-.184-.275-.183-.274-.183-1.008-.55-.915-.549-1.008-.55-1.099-.365-.274-.184-.275-.091h-.092l-.274-.092-.275-.091-.366-.092-.275-.092-.366-.091-.275-.092-1.099-.274-1.099-.184-1.19-.183-1.1-.091H22.99l-1.099.091-1.099.183-1.099.184-1.099.274-.274.092-.367.091-.274.092-.367.092-.274.091-.367.092-.274.091-.275.184-1.099.366-1.007.55-1.008.549-.915.55-.275.182-.275.183-.275.184-.274.183-.275.183-.275.183-.274.275-.275.183-.824.733-.825.732-.732.824-.733.916-.183.183-.275.275-.183.275-.183.274-.183.275-.183.275-.183.275-.184.274-.64 1.008-.458.915-.55 1.008-.366 1.099-.183.274-.092.275-.091.366-.092.275-.092.366-.091.275-.092.366-.091.275-.275 1.099-.183 1.099-.183 1.19-.092 1.1v2.655l.092 1.099.183 1.099.183 1.099.275 1.099.091.274.092.367.091.274.092.367.092.274.091.367.092.274.183.275.366 1.099.55 1.007.457 1.008.641.915.184.275.183.275.183.275.183.274.183.275.183.275.275.274.183.275.733.824.732.825.825.732.824.733.275.183.274.275.275.183.275.183.274.183.275.183.275.183.275.183.915.642 1.008.457 1.007.55 1.099.366.275.183.274.092.367.091.274.092.367.092.274.091.367.092.274.091 1.1.275 1.098.183 1.1.183 1.098.092H25.645l1.191-.092 1.1-.183 1.098-.183 1.099-.275.275-.091.366-.092.275-.091.366-.092.275-.092.366-.091.275-.092.274-.183 1.1-.366 1.007-.55.915-.457 1.008-.642.274-.183.275-.183.275-.183.275-.183.274-.183.275-.183.275-.275.183-.183.916-.733.824-.732.732-.825.733-.824.183-.275.275-.274.183-.275.183-.275.183-.274.184-.275.183-.275.183-.275.55-.915.549-1.008.55-1.007.365-1.099.184-.275.091-.274.092-.367.091-.274.092-.367.091-.274.092-.367.092-.274.366-1.466.183-1.465.183-1.373v-.092.092l-.183 1.373-.183 1.465-.366 1.466-.184.64-.183.642-.183.64-.275.55-.366 1.099-.55 1.007-.549 1.008-.55.915-.365.55-.367.55-.366.549-.458.55-.733.823-.732.825-.824.732-.916.733-.458.458-.55.366-.549.366-.55.366-1.007.642-.915.457-1.008.55-1.099.366-.55.275-.64.183-.641.183-.641.183-1.099.275-1.099.183-1.099.183-1.19.092H22.99l-1.099-.092-1.099-.183-1.099-.183-1.099-.275-.64-.183-.642-.183-.64-.183-.55-.275-1.099-.366-1.007-.55-1.008-.457-.915-.642-.55-.366-.55-.366-.549-.366-.55-.458-.823-.733-.825-.732-.732-.825-.733-.824-.458-.55-.366-.549-.366-.55-.367-.549-.64-.915-.458-1.008-.55-1.007-.366-1.099-.275-.55-.183-.64-.183-.641-.183-.641-.275-1.1-.183-1.098-.183-1.1-.092-1.098.092 1.099.183 1.099.183 1.099.275 1.099.183.64.183.642.183.64.275.55.366 1.099.55 1.007.457 1.008.641.915.367.55.366.55.366.549.458.55.733.823.732.825.825.732.824.733.55.458.549.366.55.366.549.366.915.642 1.008.457 1.007.55 1.099.366.55.275.64.183.641.183.641.183 1.1.275 1.098.183 1.1.183 1.098.092h2.656l1.19-.092 1.1-.183 1.098-.183 1.099-.275.64-.183.642-.183.64-.183.55-.275 1.1-.366 1.007-.55.915-.457 1.008-.642.55-.366.549-.366.549-.366.458-.458.916-.733.824-.732.732-.825.733-.824.458-.55.366-.549.367-.55.366-.549.55-.915.549-1.008.55-1.007.365-1.099.275-.55.183-.64.183-.641.184-.641.366-1.466.183-1.465.183-1.373v-2.748l-.183-1.557-.183-1.465-.366-1.465-.092-.366-.092-.366-.091-.367-.092-.275 13.645-3.48 6.136-.732h5.769l5.22.641 4.853 1.374 4.396 1.923 3.937 2.747-5.311 1.557-5.037 2.38-4.945 3.297-4.67 4.121-4.487 5.037-4.213 5.86-4.12 6.686-3.847 7.6-.458-.091-.457-.183-.458-.092-.458-.091-.733-.184-.64-.091-.642-.092-.64-.091-1.1-.092h-2.29l-1.098.092-.641.091-.641.092-.733.091-.64.184-1.1.274-1.007.275-1.099.366-1.007.458-.641.275-.55.275-.64.366-.55.275-.916.64-1.007.642-.824.64-.916.733-.458.458-.458.458-.458.458-.458.458-.732.916-.641.824-.641.915-.641 1.008-.275.55-.366.64-.275.55-.275.64-.458 1.008-.366 1.099-.275 1.007-.274 1.1-.184.732-.091.64-.092.642-.091.64-.092 1.1v2.29l.092 1.098.091.641.092.641.091.733.184.64.274 1.1.275 1.007.366 1.099.458 1.007.275.641.275.55.366.64.275.55.64.916.642 1.007.64.824.733.916.458.458.458.458.458.458.458.458.916.732.824.641.916.641 1.007.641.55.275.64.366.55.275.64.275 1.008.458 1.1.366 1.006.275 1.1.274.64.184.733.091.641.092.641.091 1.099.092h2.29l1.098-.092.641-.091.641-.092.641-.091.733-.184 1.007-.274 1.1-.275 1.098-.366 1.007-.458.641-.275.55-.275.64-.366.55-.275.916-.64 1.007-.642.824-.64.916-.733.458-.458.458-.458.458-.458.458-.458.732-.916.641-.824.641-.916.641-1.007.275-.55.366-.64.275-.55.275-.64.458-1.008.366-1.099.275-1.007.275-1.1.183-.64.091-.733.092-.64.091-.642.092-1.099v-2.29l-.092-1.098-.091-.641-.092-.641-.091-.641-.183-.733-.275-1.007-.275-1.099-.366-1.099-.458-1.007-.275-.641-.275-.55-.366-.64-.275-.55-.824-1.19-.824-1.191-.916-1.19-.091-.092-.183-.183-.275-.275-.183-.275-.275-.183-.275-.275-.183-.183-.275-.275-.183-.183-1.282-1.007-1.099-.824-1.282-.824-.366-.184-.275-.183-.366-.183-.275-.183 7.143-12.088 3.938-4.853 4.03-4.03 4.12-3.296 4.396-2.473 4.487-1.648 4.67-.916-2.564 4.854-1.923 5.31-1.099 5.77-.366 6.227.366 6.685 1.099 7.143 1.831 7.692 2.656 8.059-.458.275-.366.183-.458.275-.366.274-.55.367-.55.366-.549.366-.55.458-.823.733-.824.732-.733.824-.733.916-.458.458-.366.55-.366.549-.366.55-.641 1.007-.458.915-.55 1.008-.366 1.099-.275.55-.183.64-.183.641-.183.641-.275 1.1-.183 1.098-.183 1.19-.092 1.1v2.655l.092 1.099.183 1.099.183 1.099.275 1.099.183.64.183.642.183.64.275.55.366 1.099.55 1.007.458 1.008.64.915.367.55.366.55.366.549.458.55.733.823.733.825.824.732.824.733.55.458.549.366.55.366.549.367.915.64 1.008.458 1.007.55 1.007.366.641.275.641.183.641.183.642.183 1.098.275 1.1.183 1.098.183 1.1.092h2.655l1.19-.092 1.1-.183 1.098-.183 1.099-.275.641-.183.641-.183.55-.183.64-.275 1.1-.366 1.007-.55.915-.457 1.008-.641.55-.367.549-.366.55-.366.457-.458.916-.733.824-.732.733-.825.732-.824.458-.55.366-.549.367-.55.366-.549.55-.915.549-1.008.55-1.007.366-1.099.274-.55.183-.64.184-.641.183-.641.274-1.1.184-1.098.183-1.1.091-1.098v-2.656l-.091-1.19-.183-1.099-.184-1.099-.274-1.099-.183-.64-.184-.642-.183-.64-.274-.55-.367-1.1-.55-1.007-.549-.915-.55-1.008-.365-.55-.367-.549-.366-.549-.458-.458-.732-.916-.733-.824-.824-.732-.916-.733-.458-.458-.55-.366-.549-.366-.55-.367-1.007-.55-.915-.549-1.008-.55-1.099-.365-.549-.275-.641-.183-.641-.183-.641-.184-1.465-.366-1.465-.183-1.466-.183h-2.747l-1.557.183-1.373.183-1.465.366-.367.092-.366.092-.366.091-.367.092-3.388-13.645-.733-6.135v-5.77l.641-5.22 1.283-4.853 2.014-4.396 2.656-3.937 1.557 5.311 2.472 5.037 3.297 4.945 4.12 4.67 5.037 4.487 5.861 4.213 6.685 4.12 7.6 3.847-.09.458-.184.457-.091.458-.092.458-.183.733-.092.64-.091.642-.092.64-.091 1.1v2.29l.091 1.098.092.641.091.641.092.733.183.64.275 1.1.274 1.007.367 1.099.458 1.007.274.641.275.55.275.64.366.55.55.916.64 1.007.733.824.733.916.458.458.457.458.458.458.458.458.916.732.824.641.916.641 1.007.641.55.275.64.366.55.275.641.275 1.008.458 1.098.366 1.008.275 1.099.274.64.184.642.091.732.092.641.091 1.1.092h2.289l1.099-.092.64-.091.642-.092.64-.091.642-.184 1.098-.274 1.1-.275 1.098-.366 1.008-.458.64-.275.55-.275.641-.366.55-.275.915-.64.916-.642.916-.64.824-.733.55-.458.457-.458.458-.458.458-.458.733-.916.64-.824.642-.916.64-1.007.275-.55.367-.64.275-.55.274-.64.458-1.008.366-1.099.275-1.007.275-1.1.091-.64.184-.733.091-.64.092-.642v-1.099l.091-1.099-.091-1.19v-1.1l-.092-.64-.091-.641-.184-.641-.091-.733-.275-1.007-.275-1.099-.457-1.099-.367-1.007-.274-.641-.275-.55-.367-.64-.274-.55-.641-.916-.641-1.007-.641-.824-.733-.916-.458-.458-.458-.458-.458-.458-.549-.458-.824-.732-.916-.641-.916-.641-.915-.641-.55-.275-.64-.366-.55-.275-.641-.275-1.008-.458-1.099-.366-1.099-.275-1.098-.274-.641-.184-.641-.091-.641-.092-.641-.091-1.1-.092h-2.289l-1.099.092-.64.091-.733.092-.641.091-.641.184-1.1.274-1.007.275-1.098.366-1.008.458-.64.275-.55.275-.641.366-.55.275-1.282.824-1.19.824-1.1.916-.09.091-.184.183-.275.275-.274.183-.184.275-.274.183-.183.275-.275.275-.183.183-1.008 1.282-.824 1.099-.824 1.282-.183.366-.183.275-.183.366-.184.275-12.087-7.143-4.854-3.938-4.03-4.029-3.296-4.12-2.472-4.396-1.74-4.488-.825-4.67 4.762 2.564 5.312 1.923 5.86 1.1 6.228.365 6.685-.366 7.142-1.099 7.693-1.831 8.058-2.656.275.458.183.366.275.458.275.366.366.55.366.55.367.549.457.55.733.823.733.825.824.732.824.733.55.458.549.366.55.366.549.366.916.642 1.007.457 1.007.55 1.008.366.64.275.642.183.64.183.642.183 1.099.275 1.098.183 1.1.183 1.098.092h2.656l1.19-.092 1.1-.183 1.098-.183 1.1-.275.64-.183.641-.183.55-.183.64-.275 1.1-.366 1.007-.55.916-.457 1.007-.642.55-.366.549-.366.55-.366.457-.458.916-.733.732-.732.825-.825.732-.824.367-.55.457-.549.367-.55.366-.549.55-.915.549-1.008.55-1.007.366-1.099.274-.55.184-.64.183-.641.183-.641.275-1.1.183-1.098.183-1.1.091-1.098v-2.656l-.091-1.19-.183-1.1-.183-1.098-.275-1.099-.183-.64-.183-.642-.184-.55-.274-.64-.458-1.1-.458-1.007-.55-.915-.549-1.008-.366-.55-.367-.549-.457-.55-.367-.457-.732-.916-.825-.824-.732-.732-.916-.733-.458-.458-.55-.366-.549-.367-.55-.366-1.006-.55-.916-.549-1.1-.55-1.006-.365-.641-.275-.55-.183-.64-.184-.642-.183-1.099-.274-1.099-.184-1.19-.183-1.1-.091h-2.655l-1.099.091-1.099.183-1.098.184-1.1.274-.64.183-.641.184-.641.183-.641.275-1.008.366-1.007.55-1.007.549-.916.55-.55.365-.55.367-.549.366-.549.458-.824.733-.824.732-.733.824-.733.916-.457.458-.367.55-.366.549-.366.55-.641 1.007-.458.915-.55 1.008-.366 1.099-.275.549-.183.641-.275.641-.091.641-.366 1.465-.275 1.465-.092 1.466v.732l-.091.275v.733l.091.274v.733l.092 1.557.275 1.373.366 1.466.091.366.092.366.092.366.091.367-13.645 3.388-6.135.733h-5.77l-5.22-.641-4.853-1.282-4.395-2.015-3.938-2.656 5.22-1.557 5.128-2.472 4.854-3.297 4.67-4.12 4.487-5.037 4.304-5.861 4.121-6.685 3.846-7.6.458.09.458.184.458.092.458.091.64.183.642.092.732.091.641.092 1.1.092h2.289l1.099-.092.64-.092.642-.091.64-.092.642-.183 1.098-.275 1.1-.274 1.098-.367 1.008-.458.64-.274.55-.275.641-.275.55-.366.915-.55.916-.732.916-.641.824-.733.55-.458.457-.457.458-.458.458-.458.733-.916.64-.824.642-.916.64-1.007.275-.55.367-.64.275-.55.274-.641.458-1.007.366-1.1.275-1.007.275-1.099.091-.64.184-.733.091-.641.092-.641v-1.1l.091-1.098-.091-1.19v-1.1l-.092-.64-.091-.641-.184-.641-.091-.642-.275-1.098-.275-1.1-.457-1.098-.367-1.008-.274-.64-.275-.55-.367-.641-.274-.55-.641-.915-.641-.916-.641-.916-.733-.824-.458-.55-.458-.457-.458-.458-.549-.458-.824-.733-.916-.64-.916-.642-.915-.64-.55-.275-.64-.367-.55-.274-.641-.275-1.008-.458-1.099-.366-1.099-.275-1.098-.275-.641-.091-.641-.183-.641-.092-.641-.092h-1.1l-1.19-.091-1.099.091h-1.099l-.64.092-.733.092-.641.183-.641.091-1.1.275-1.007.275-1.098.458-1.008.366-.64.275-.55.274-.641.367-.55.274-1.007.641-.916.641-.916.641-.824.733-.458.458-.458.458-.457.458-.458.55-.733.823-.732.916-.55.916-.64.916-.367.549-.275.641-.275.55-.274.64-.458 1.008-.367 1.099-.274 1.099-.275 1.098-.183.642-.092.64-.091.642-.092.64-.091 1.1v2.289l.091 1.099.092.64.091.642.092.732.183.641.275 1.1.274 1.007.367 1.099.458 1.007.274.64.275.55.275.641.366.55.733 1.282.915 1.19.916 1.1.092.09.183.184.275.275.183.274.274.184.184.274.274.183.275.275.183.183 1.19 1.008 1.191.824 1.282.824.275.183.366.183.367.183.274.184-7.234 12.088-3.846 4.853-4.03 4.03-4.212 3.296-4.304 2.473-4.487 1.74-4.762.824 2.656-4.762 1.923-5.312 1.099-5.86.366-6.228-.366-6.685-1.1-7.142-1.922-7.693-2.565-8.058.367-.275.458-.183.366-.275.458-.275.55-.366.549-.366.55-.366.457-.458.916-.733.824-.733.733-.824.732-.824.458-.55.366-.549.367-.55.366-.549.55-.915.549-1.008.55-1.007.366-1.007.274-.641.183-.641.184-.642.183-.64.274-1.1.184-1.098.183-1.1.091-1.098V23.1l-.091-1.19-.183-1.1-.184-1.098-.274-1.099-.183-.641-.184-.641-.183-.55-.274-.64-.367-1.1-.55-1.007-.549-.915-.55-1.008-.365-.55-.367-.549-.366-.55-.458-.457-.732-.916-.733-.824-.824-.733-.916-.732-.458-.366-.55-.458-.549-.367-.55-.366-1.007-.55-.915-.549-1.008-.55-1.099-.366-.549-.274-.641-.183-.641-.184-.641-.183-1.099-.274-1.099-.184-1.19-.183-1.1-.091h-2.655l-1.099.091-1.099.183-1.099.184-1.098.274-.642.183-.64.184-.642.183-.64.274-1.008.458-1.007.458-1.008.55-.915.55-.55.365-.55.367-.549.458-.55.366-.823.732-.824.733-.733.824-.733.916-.458.458-.366.55-.366.549-.366.55-.641 1.007-.458.915-.55 1.008-.366 1.099-.275.64-.183.55-.183.641-.183.641-.275 1.099-.183 1.099-.183 1.19-.092 1.1v2.655l.092 1.099.183 1.099.183 1.099.275 1.098.183.641.183.642.183.64.275.642.366 1.007.55 1.007.458 1.008.64.915.367.55.366.55.366.549.458.55.733.823.733.824.824.733.824.733.55.458.549.366.55.366.549.366.915.641 1.008.458 1.007.55 1.007.366.641.275.641.183.641.275.642.091 1.465.367 1.373.274 1.466.092h1.098l.367.091.366-.091h.916l1.557-.092 1.465-.274 1.465-.367.366-.091.367-.092.366-.091.275-.092 3.48 13.645.732 6.135v5.77l-.641 5.22-1.374 4.853-1.923 4.395-2.747 3.938-1.557-5.311-2.38-5.037-3.297-4.854-4.121-4.761-5.037-4.396-5.86-4.304-6.686-4.12-7.6-3.847.091-.458.183-.458.092-.458.092-.458.183-.64.091-.733.092-.641.091-.641.092-1.1v-2.289l-.092-1.098-.091-.641-.092-.641-.091-.641-.183-.642-.275-1.098-.275-1.1-.366-1.098-.458-1.008-.275-.64-.275-.55-.366-.641-.275-.55-.64-.915-.642-.916-.64-.916-.733-.824-.458-.55-.458-.457-.458-.458-.458-.458-.916-.733-.824-.64-1.007-.642-.916-.64-.55-.275-.64-.367-.55-.274-.64-.275-1.008-.458-1.099-.366-1.007-.275-1.1-.275-.732-.091-.64-.183-.642-.092-.64-.092h-1.1l-1.19-.091-1.1.091h-1.098l-.641.092-.641.092-.733.183-.64.091-1.1.275-1.007.275-1.099.458-1.007.366-.641.275-.55.274-.64.367-.55.274-.916.641-1.007.641-.824.641-.916.733-.458.458-.458.458-.458.458-.458.55-.732.823-.641.916-.641.916-.641.916-.275.549-.366.641-.275.55-.275.64-.458 1.008-.366 1.099-.275 1.099-.274 1.098-.184.642-.091.64-.092.642-.091.64-.092 1.1v2.289l.092 1.099.091.64.092.642.091.732.184.641.274 1.1.275 1.007.366 1.099.458 1.007.275.64.275.55.366.641.275.55.64 1.007.642.916.64.916.733.824.458.458.458.458.458.457.458.458.916.733.824.641.916.641 1.007.641.55.366.64.275.55.275.64.274 1.008.458 1.1.367 1.006.274 1.1.275.64.183.733.092.641.091.641.092 1.099.092h2.29l1.098-.092.641-.092.641-.091.641-.092.733-.183 1.007-.275 1.1-.274 1.098-.367 1.007-.458.641-.274.55-.275.64-.275.55-.366 1.19-.733 1.191-.915 1.19-.916.092-.092.183-.183.275-.275.183-.183.275-.274.275-.184.183-.274.275-.275.183-.183 1.007-1.19.824-1.191.824-1.282.184-.275.183-.366.183-.366.183-.275 12.088 7.234 4.853 3.846 4.03 4.03 3.296 4.212 2.473 4.304 1.648 4.487.916 4.762-4.853-2.655-5.312-1.924-5.769-1.098-6.227-.367-6.685.367-7.235 1.098-7.6 1.832-8.059 2.656-.275-.367-.183-.458-.274-.457-.275-.367-.366-.55-.367-.549-.366-.55-.458-.457-.733-.916-.732-.824-.824-.732-.916-.733-.458-.458-.55-.366-.549-.367-.55-.366-1.007-.55-.915-.549-1.008-.55-1.099-.365-.55-.275-.64-.183-.641-.184-.641-.183-1.099-.274-1.099-.184-1.19-.183-1.1-.091H22.99l-1.099.091-1.099.183-1.099.184-1.099.274-.64.183-.642.184-.64.183-.55.275-1.099.366-1.007.55-1.008.549-.915.55-.55.365-.55.367-.549.366-.55.458-.823.733-.825.732-.732.824-.733.916-.458.458-.366.55-.366.549-.367.55-.64 1.007-.458.915-.55 1.008-.366 1.099-.275.549-.183.641-.183.641-.183.641-.275 1.099-.183 1.099-.183 1.19-.092 1.1v1.922-1.923l.092-1.099.183-1.19.183-1.099.275-1.099.183-.64.183-.642.183-.641.275-.55.366-1.098.55-1.008.457-.915.641-1.008.367-.55.366-.549.366-.55.458-.457.733-.916.732-.824.825-.732.824-.733.55-.458.549-.366.55-.367.549-.366.915-.55 1.008-.549 1.007-.55 1.099-.365.55-.275.64-.183.641-.184.641-.183 1.1-.274 1.098-.184 1.1-.183 1.098-.091h2.656l1.099.091 1.19.183 1.099.184 1.099.274.64.183.642.184.64.183.55.275 1.1.366 1.007.55.915.549 1.008.55.55.365.549.367.549.366.458.458.916.733.824.732.732.824.733.916.458.458.366.55.367.549.366.55.275.366.274.457.183.458.275.367 8.059-2.656 7.6-1.832 7.235-1.098 6.685-.367 6.227.367 5.77 1.098 5.31 1.924 4.854 2.655-.916-4.762-1.648-4.487-2.473-4.304-3.296-4.212-4.03-4.03-4.853-3.846L66.946 56.8l-.183.275-.183.366-.183.366-.184.275-.824 1.282-.824 1.19-1.007 1.19-.183.184-.275.275-.183.274-.275.184-.275.274-.183.183-.275.275-.183.183-.091.092-1.19.916-1.191.915-1.19.733-.55.366-.641.275-.55.275-.64.274-1.008.458-1.099.367-1.099.274-1.007.275-.733.183-.64.092-.642.091-.64.092-1.1.092h-2.29l-1.098-.092-.641-.092-.641-.091-.733-.092-.64-.183-1.1-.275-1.007-.274-1.099-.367-1.007-.458-.641-.274-.55-.275-.64-.275-.55-.366-1.007-.641-.916-.641-.824-.641-.916-.733-.458-.458-.458-.457-.458-.458-.458-.458-.732-.824-.641-.916-.641-.916-.641-1.007-.275-.55-.366-.64-.275-.55-.275-.641-.458-1.007-.366-1.1-.275-1.007-.274-1.099-.184-.64-.091-.733-.092-.641-.091-.641-.092-1.1v-2.289l.092-1.098.091-.641.092-.641.091-.641.184-.642.274-1.098.275-1.1.366-1.098.458-1.008.275-.64.275-.55.366-.641.275-.55.64-.915.642-.916.64-.916.733-.824.458-.55.458-.457.458-.458.458-.458.916-.733.824-.64 1.007-.642.916-.64.55-.275.64-.367.55-.274.64-.275 1.008-.366 1.1-.458 1.006-.275 1.1-.275.64-.091.733-.183.641-.092.641-.092h1.099l1.099-.091 1.19.091h1.1l.64.092.641.092.641.183.733.091 1.099.275 1.007.275 1.099.366 1.007.458.641.275.55.274.64.367.55.274.916.641 1.007.641.824.641.916.733.458.458.458.458.458.458.458.55.732.823.641.916.641.916.641.916.275.549.366.641.275.55.275.64.458 1.008.366 1.099.275 1.099.275 1.098.183.642.091.64.092.642.091.64.092 1.1v2.289l-.092 1.099-.091.64-.092.642-.091.732-.183.641-.092.458-.092.458-.183.458-.091.458 7.6 3.846 6.685 4.121 5.861 4.304 5.037 4.396 4.12 4.761 3.297 4.854 2.381 5.037 1.557 5.31 2.747-3.937 1.923-4.395 1.374-4.854.641-5.22v-5.769l-.733-6.135-3.48-13.645-.274.092-.366.091-.367.092-.366.091-1.465.367-1.465.274-1.557.092h-.916l-.366.091-.367-.091h-1.098L97.257 47l-1.373-.274-1.465-.367-.642-.091-.64-.275-.642-.183-.64-.275-1.008-.366-1.007-.55-1.008-.458-.915-.64-.55-.367-.55-.366-.549-.366-.55-.458-.823-.733-.824-.733-.733-.824-.733-.824-.458-.55-.366-.549-.366-.55-.366-.549-.641-.915-.458-1.008-.55-1.007-.366-1.007-.275-.641-.183-.641-.183-.642-.183-.64-.275-1.1-.183-1.098-.183-1.1-.092-1.098V23.1l.092-1.099.183-1.19.183-1.1.275-1.098.183-.641.183-.641.183-.55.275-.64.366-1.1.55-1.007.458-.915.64-1.008.367-.55.366-.549.366-.55.458-.457.733-.916.733-.824.824-.733.824-.732.55-.366.549-.458.55-.367.549-.366.915-.55 1.008-.549 1.007-.458 1.007-.458.641-.274.641-.183.641-.184.642-.183 1.098-.274 1.1-.184 1.098-.183 1.1-.091h2.655l1.099.091 1.19.183 1.1.184 1.098.274.641.183.641.184.641.183.55.274 1.098.367 1.008.55.915.549 1.008.55.55.365.549.367.55.458.457.366.916.732.824.733.733.824.732.916.458.458.366.55.367.549.366.55.55 1.007.549.915.55 1.008.366 1.099.274.64.183.55.184.641.183.641.274 1.099.184 1.099.183 1.099.091 1.19v2.656l-.091 1.099-.183 1.099-.184 1.099-.274 1.098-.183.641-.184.642-.183.64-.274.642-.367 1.007-.55 1.007-.549 1.008-.55.915-.365.55-.367.55-.366.549-.458.55-.732.823-.733.824-.824.733-.916.733-.458.458-.55.366-.549.366-.55.366-.457.275-.366.275-.458.183-.367.275 2.565 8.058 1.923 7.693 1.099 7.142.366 6.685-.366 6.228-1.1 5.86-1.922 5.312-2.656 4.762 4.762-.825 4.487-1.74 4.304-2.472 4.212-3.297 4.03-4.029 3.846-4.853 7.234-12.088-.274-.184-.367-.183-.366-.183-.275-.183-1.282-.824-1.19-.824-1.19-1.008-.184-.183-.275-.275-.274-.183-.184-.274-.274-.184-.183-.274-.275-.275-.183-.183-.092-.092-.916-1.099-.915-1.19-.733-1.282-.366-.55-.275-.64-.275-.55-.274-.641-.458-1.007-.367-1.1-.274-1.007-.275-1.099-.183-.64-.092-.733-.091-.641-.092-.641-.091-1.1v-2.289l.091-1.098.092-.641.091-.641.092-.641.183-.642.275-1.098.274-1.1.367-1.098.458-1.008.274-.64.275-.55.275-.641.366-.55.641-.915.55-.916.732-.916.733-.824.458-.55.457-.457.458-.458.458-.458.824-.733.916-.64.916-.642 1.007-.64.55-.275.64-.367.55-.274.641-.275 1.008-.366 1.098-.458 1.008-.275 1.099-.275.64-.091.642-.183.732-.092.641-.092h1.1l1.098-.091 1.19.091h1.1l.64.092.642.092.64.183.642.091 1.098.275 1.1.275 1.098.366 1.008.458.64.275.55.274.641.367.55.274.915.641.916.641.916.641.824.733.55.458.457.458.458.458.458.55.733.823.64.916.642.916.64.916.275.549.367.641.275.55.274.64.367 1.008.457 1.099.275 1.099.275 1.098.091.642.184.64.091.642.092.64v1.1l.091 1.19-.091 1.099v1.099l-.092.64-.091.642-.184.732-.091.641-.275 1.1-.275 1.007-.366 1.099-.458 1.007-.274.64-.275.55-.367.641-.274.55-.641 1.007-.641.916-.641.824-.733.916-.458.458-.458.458-.458.457-.549.458-.824.733-.916.641-.916.733-.915.549-.55.366-.64.275-.55.275-.641.274-1.008.458-1.099.367-1.099.274-1.098.275-.641.183-.641.092-.641.091-.641.092-1.1.092h-2.289l-1.099-.092-.64-.092-.733-.091-.641-.092-.641-.183-.458-.091-.458-.092-.458-.183-.458-.092-3.846 7.601-4.12 6.685-4.305 5.86-4.487 5.037-4.67 4.121-4.854 3.297-5.128 2.472-5.22 1.557 3.938 2.656 4.395 2.015 4.854 1.282 5.22.64h5.769l6.135-.732 13.645-3.388-.091-.367-.092-.366-.092-.366-.091-.366-.366-1.466-.275-1.373-.092-1.557v-.733l-.091-.274v-.733l.091-.275v-.732l.092-1.466.275-1.465.366-1.465.091-.64.275-.642.183-.641.275-.55.366-1.098.55-1.008.458-.915.64-1.008.367-.55.366-.549.367-.55.457-.457.733-.916.733-.824.824-.732.824-.733.55-.458.549-.366.55-.367.549-.366.916-.55 1.007-.549 1.007-.55 1.008-.365.64-.275.642-.183.64-.184.642-.183 1.099-.274 1.098-.184 1.1-.183 1.098-.091h2.656l1.099.091 1.19.183 1.1.184 1.098.274.641.183.641.184.55.183.64.275 1.008.366 1.099.55.916.549 1.007.55.55.365.549.367.55.366.457.458.916.733.732.732.825.824.732.916.367.458.457.55.367.549.366.55.55 1.007.549.915.458 1.008.458 1.099.274.64.184.55.183.641.183.641.275 1.099.183 1.099.183 1.099.091 1.19v2.656l-.091 1.099-.183 1.099-.183 1.099-.275 1.099-.183.64-.183.642-.184.64-.274.55-.367 1.099-.55 1.007-.549 1.008-.549.915-.366.55-.367.55-.457.549-.367.55-.732.823-.825.825-.732.732-.916.733-.458.458-.55.366-.549.366-.55.366-1.006.642-.916.457-1.007.55-1.1.366-.64.275-.55.183-.64.183-.642.183-1.099.275-1.099.183-1.099.183-1.19.092h-2.656l-1.099-.092-1.099-.183-1.098-.183-1.1-.275-.64-.183-.641-.183-.641-.183-.641-.275-1.008-.366-1.007-.55-1.007-.457-.916-.642-.55-.366-.55-.366-.549-.366-.549-.458-.824-.733-.824-.732-.733-.825-.733-.824-.457-.55-.367-.549-.366-.55-.366-.549-.275-.366-.275-.458-.183-.366-.275-.458-8.058 2.656-7.693 1.831-7.142 1.1-6.685.365-6.227-.366-5.861-1.099-5.312-1.923-4.762-2.564.825 4.67 1.74 4.488 2.472 4.395 3.297 4.121 4.03 4.03 4.853 3.937 12.087 7.143.184-.275.183-.366.183-.275.183-.366.824-1.282.824-1.1 1.008-1.281.183-.183.275-.275.183-.275.274-.183.184-.275.274-.183.275-.275.183-.183.092-.091 1.099-.916 1.19-.824 1.282-.824.55-.275.64-.366.55-.275.641-.275 1.008-.458 1.098-.366 1.008-.275 1.099-.274.64-.184.642-.091.732-.092.641-.091 1.1-.092h2.289l1.099.092.64.091.642.092.64.091.642.184 1.098.274 1.1.275 1.098.366 1.008.458.64.275.55.275.641.366.55.275.915.64.916.642.916.64.824.733.55.458.457.458.458.458.458.458.733.916.64.824.642 1.007.64.916.275.55.367.64.275.55.274.64.367 1.008.457 1.099.275 1.099.275 1.007.091.733.184.64.091.642.092.64v1.1l.091 1.19-.091 1.1v1.098l-.092.641-.091.641-.184.733-.091.64-.275 1.1-.275 1.007-.366 1.099-.458 1.007-.274.641-.275.55-.367.64-.274.55-.641 1.007-.641.916-.641.824-.733.916-.458.458-.458.458-.458.458-.549.458-.824.732-.916.641-.916.641-.915.641-.55.275-.64.366-.55.275-.641.275-1.008.458-1.099.366-1.099.275-1.098.274-.641.184-.641.091-.641.092-.641.091-1.1.092h-2.289l-1.099-.092-.64-.091-.733-.092-.641-.091-.641-.184-1.1-.274-1.007-.275-1.098-.366-1.008-.458-.64-.275-.55-.275-.641-.366-.55-.275-1.007-.64-.916-.642-.824-.64-.916-.733-.458-.458-.458-.458-.457-.458-.458-.458-.733-.916-.732-.824-.641-1.007-.55-.916-.366-.55-.275-.64-.275-.55-.274-.64-.458-1.008-.367-1.099-.274-1.007-.275-1.1-.183-.64-.092-.733-.091-.64-.092-.642-.091-1.099v-2.29l.091-1.098.092-.641.091-.641.092-.641.183-.733.092-.458.091-.458.183-.457.092-.458-7.6-3.846-6.686-4.121-5.86-4.213-5.037-4.487-4.121-4.67-3.297-4.945-2.472-5.037-1.557-5.311-2.656 3.937-2.014 4.396-1.283 4.854-.64 5.22v5.769l.732 6.135 3.388 13.645.367-.092.366-.091.366-.092.367-.092 1.465-.366 1.373-.183 1.557-.183h2.747l1.466.183 1.465.183 1.465.366.641.184.641.183.641.183.55.275 1.098.366 1.008.55.915.549 1.008.55.55.366.549.366.55.366.457.458.916.733.824.732.733.824.732.916.458.458.366.55.367.549.366.55.55 1.007.549.915.55 1.008.366 1.099.274.55.183.64.184.641.183.641.274 1.1.184 1.098.183 1.099.091 1.19v2.656l-.091 1.099-.183 1.099-.184 1.099-.274 1.099-.183.64-.184.642-.183.64-.274.55-.367 1.099-.55 1.007-.549 1.008-.55.915-.365.55-.367.55-.366.549-.458.55-.732.823-.733.825-.824.732-.916.733-.458.458-.55.366-.549.366-.55.367-1.007.64-.915.458-1.008.55-1.099.366-.64.275-.55.183-.641.183-.641.183-1.099.275-1.099.183-1.099.183-1.19.092h-2.656l-1.099-.092-1.099-.183-1.099-.183-1.098-.275-.642-.183-.64-.183-.642-.183-.64-.275-1.008-.366-1.007-.55-1.008-.457-.915-.641-.55-.367-.55-.366-.549-.366-.55-.458-.823-.733-.824-.732-.733-.825-.733-.824-.458-.55-.366-.549-.366-.55-.366-.549-.641-.915-.458-1.008-.55-1.007-.366-1.099-.275-.55-.183-.64-.183-.641-.183-.641-.275-1.1-.183-1.098-.183-1.1-.092-1.098v-2.656l.092-1.099.183-1.19.183-1.099.275-1.099.183-.64.183-.642.183-.64.275-.55.366-1.1.55-1.007.458-.915.64-1.008.367-.55.366-.549.366-.549.458-.458.733-.916.733-.824.824-.732.824-.733.55-.458.549-.366.55-.366.549-.367.366-.274.458-.275.366-.183.458-.275-2.656-8.059-1.831-7.692-1.099-7.143-.366-6.685.366-6.227 1.099-5.77 1.923-5.31 2.564-4.854-4.67.916-4.487 1.648-4.396 2.473-4.12 3.296-4.03 4.03-3.938 4.853-7.143 12.088.275.183.366.183.275.183.366.184 1.282.824 1.1.824 1.281 1.007.183.183.275.275.183.183.275.275.275.183.183.275.275.275.183.183.091.091.916 1.19.824 1.191.824 1.19.275.55.366.641.275.55.275.64.458 1.008.366 1.099.275 1.099.275 1.007.183.733.091.64.092.642.091.64.092 1.1v2.29l-.092 1.098-.091.641-.092.641-.091.733-.183.64-.275 1.1-.275 1.007-.366 1.099-.458 1.007-.275.641-.275.55-.366.64-.275.55-.64 1.007-.642.916-.64.824-.733.916-.458.458-.458.458-.458.458-.458.458-.916.732-.824.641-1.007.641-.916.641-.55.275-.64.366-.55.275-.64.275-1.008.458-1.099.366-1.099.275-1.007.274-.733.184-.64.091-.642.092-.64.091-1.1.092h-2.29l-1.098-.092-.641-.091-.641-.092-.733-.091-.64-.184-1.1-.274-1.007-.275-1.099-.366-1.007-.458-.641-.275-.55-.275-.64-.366-.55-.275-1.007-.64-.916-.642-.824-.64-.916-.733-.458-.458-.458-.458-.458-.458-.458-.458-.732-.916-.641-.824-.641-1.007-.641-.916-.275-.55-.366-.64-.275-.55-.275-.64-.458-1.008-.366-1.099-.275-1.007-.274-1.1-.184-.64-.091-.733-.092-.64-.091-.642-.092-1.099v-2.29l.092-1.098.091-.641.092-.641.091-.641.184-.733.274-1.099.275-1.007.366-1.099.458-1.007.275-.641.275-.55.366-.64.275-.55.64-1.008.642-.915.64-.824.733-.916.458-.458.458-.458.458-.458.458-.458.916-.732.824-.641 1.007-.641.916-.641.55-.275.64-.366.55-.275.64-.275 1.008-.458 1.1-.366 1.006-.275 1.1-.274.64-.184.733-.091.641-.092.641-.091 1.099-.092h2.29l1.098.092.641.091.641.092.641.091.733.184.458.091.458.092.457.183.458.091 3.846-7.6 4.121-6.685 4.213-5.861 4.487-5.037 4.67-4.12 4.945-3.297 5.037-2.381 5.311-1.557-3.937-2.747-4.396-1.923-4.853-1.374-5.22-.641h-5.77l-6.135.733-13.645 3.48.092.274.091.367.092.366.092.366.366 1.465.183 1.465.183 1.557v2.656-2.839l-.183-1.374-.183-1.465-.366-1.465-.092-.366-.092-.275v-.091l-.091-.367-.092-.275 13.645-3.48 6.136-.732h5.769l5.22.641 4.853 1.374 4.396 1.923 3.937 2.747-5.311 1.557-5.037 2.38-4.945 3.297-4.67 4.121-4.487 5.037-4.213 5.86-4.12 6.686-3.847 7.6-.458-.091-.457-.183-.458-.092-.458-.091-.366-.092-.367-.092h-.274l-.367-.091h-.275l-.366-.092h-.275l-.366-.091-1.099-.092h-2.29l-1.098.092-.366.091h-.275l-.366.092h-.275l-.366.091h-.367l-.274.092-.367.092-1.099.274-1.007.275-1.099.366-1.007.458-.366.183-.275.092-.275.183-.275.092-.366.183-.275.183-.274.091-.275.184-.916.64-1.007.642-.824.64-.916.733-.183.183-.275.275-.275.183-.183.275-.275.183-.183.275-.274.275-.184.183-.732.916-.641.824-.641.915-.641 1.008-.183.275-.092.274-.183.367-.183.274-.092.275-.183.275-.183.366-.092.275-.458 1.007-.366 1.099-.275 1.007-.274 1.1-.092.365-.092.367v.275l-.091.366v.275l-.092.366v.275l-.091.366-.092 1.099v2.29l.092 1.098.091.366v.275l.092.366v.275l.091.366v.367l.092.274.092.367.274 1.099.275 1.007.366 1.099.458 1.007.092.366.183.275.183.275.092.275.183.366.183.275.092.274.183.275.64.916.642 1.007.64.824.733.916.184.183.274.275.183.275.275.183.183.275.275.183.275.274.183.184.916.732.824.641.916.641 1.007.641.275.183.274.092.275.183.366.183.275.092.275.183.275.183.366.092 1.007.458 1.1.366 1.006.275 1.1.274.366.092.274.092h.367l.366.091h.275l.366.092h.275l.366.091 1.099.092h2.29l1.098-.092.366-.091h.275l.366-.092h.275l.367-.091h.274l.367-.092.366-.092 1.007-.274 1.1-.275 1.098-.366 1.007-.458.275-.092.366-.183.275-.183.275-.092.274-.183.367-.183.275-.092.274-.183.916-.64 1.007-.642.824-.64.916-.733.183-.184.275-.274.183-.183.275-.275.275-.183.183-.275.275-.275.183-.183.732-.916.641-.824.641-.916.641-1.007.184-.275.091-.274.183-.275.183-.366.092-.275.183-.275.092-.275.183-.366.458-1.007.366-1.099.275-1.007.275-1.1.091-.366.092-.274v-.367l.091-.366v-.275l.092-.366v-.275l.091-.366.092-1.099v-2.29l-.092-1.098-.091-.366v-.275l-.092-.366v-.275l-.091-.366v-.275l-.092-.367-.091-.366-.275-1.007-.275-1.099-.366-1.099-.458-1.007-.183-.275-.092-.366-.183-.275-.092-.275-.183-.366-.183-.275-.091-.274-.184-.275-.824-1.19-.824-1.191-.916-1.19-.091-.092-.183-.183-.275-.275-.183-.275-.275-.183-.275-.275-.183-.183-.275-.275-.183-.183-.091-.091-1.19-.916-1.1-.824-1.282-.824-.366-.184-.183-.091-.092-.092-.366-.183-.275-.183 7.143-12.088 3.938-4.853 4.03-4.03 4.12-3.296 4.396-2.473 4.487-1.648 4.67-.916-2.564 4.854-1.923 5.31-1.099 5.77-.366 6.227.366 6.685 1.099 7.143 1.831 7.692 2.656 8.059-.458.275-.366.183-.458.275-.366.274-.275.183-.275.184-.274.183-.275.183-.275.183-.275.183-.274.275-.275.183-.824.733-.824.732-.733.824-.733.916-.183.183-.275.275-.183.275-.183.274-.183.275-.183.275-.183.275-.183.274-.641 1.008-.458.915-.55 1.008-.366 1.099-.183.274-.092.275-.091.366-.092.275-.092.366-.091.275-.092.366-.091.275-.275 1.1-.183 1.098-.183 1.19-.092 1.1v2.655l.092 1.099.183 1.099.183 1.099.275 1.099.091.274.092.367.091.274.092.367.092.274.091.367.092.274.183.275.366 1.099.55 1.007.458 1.008.64.915.184.275.183.275.183.275.183.274.183.275.183.275.275.275.183.274.733.824.733.825.824.732.824.733.275.183.274.275.275.183.275.183.275.183.274.183.275.183.275.184.915.64 1.008.458 1.007.55 1.007.366.367.183.274.092.367.092.274.091.367.092.274.091.367.092.275.091 1.098.275 1.1.183 1.098.183 1.1.092h2.655l1.19-.092 1.1-.183 1.098-.183 1.099-.275.275-.091.366-.092.275-.091.366-.092.275-.091.274-.092h.092l.275-.092.274-.183 1.1-.366 1.007-.55.915-.457 1.008-.641.275-.184.274-.183.275-.183.275-.183.274-.183.275-.183.275-.275.183-.183.916-.733.824-.732.733-.825.732-.824.183-.274.183-.275.275-.275.183-.275.183-.274.184-.275.183-.275.183-.275.55-.915.549-1.008.55-1.007.366-1.099.183-.275.091-.274.092-.367.091-.274.092-.367.092-.274.091-.367.092-.274.274-1.1.184-1.098.183-1.1.091-1.098v-2.656l-.091-1.19-.183-1.099-.184-1.099-.274-1.099-.092-.275-.091-.366-.092-.275-.092-.366-.091-.275-.092-.366-.091-.275-.183-.274-.367-1.1-.55-1.007-.549-.915-.55-1.008-.182-.274-.183-.275-.184-.275-.183-.275-.183-.274-.183-.275h-.092l-.183-.275-.183-.183-.732-.916-.733-.824-.824-.732-.916-.733-.183-.183-.275-.275-.275-.183-.274-.183-.275-.183-.275-.183-.274-.184-.275-.183-1.008-.55-.915-.549-1.008-.55-1.099-.365-.274-.184-.275-.091h-.092l-.274-.092-.275-.091-.366-.092-.275-.091-.366-.092-.275-.092-1.465-.366-1.465-.183-1.466-.183h-2.838l-1.466.183-1.373.183-1.465.366-.367.092-.275.092h-.091l-.366.091-.367.092-3.388-13.645-.733-6.135v-5.77l.641-5.22 1.283-4.853 2.014-4.396 2.656-3.937 1.557 5.311 2.472 5.037 3.297 4.945 4.12 4.67 5.037 4.487 5.861 4.213 6.685 4.12 7.6 3.847-.09.458-.184.457-.091.458-.092.458-.092.366-.091.367v.275l-.092.366-.091.275v.64l-.092.367-.091 1.099v2.29l.091 1.098.092.366v.641l.091.275.092.366v.367l.091.274.092.367.275 1.099.274 1.007.367 1.099.458 1.007.091.366.183.275.092.275.183.275.183.366.092.275.183.274.183.275.55.916.64 1.007.733.824.733.916.183.183.275.275.183.275.274.183.184.275.274.183.275.274.183.184.916.732.824.641.916.641 1.007.641.275.183.275.092.274.183.367.183.274.092.275.183.275.183.366.092 1.008.458 1.098.366 1.008.275 1.099.274.366.092.275.092h.366l.275.091h.366l.366.092h.275l.366.091 1.1.092h2.289l1.099-.092.274-.091h.367l.366-.092h.275l.366-.091h.275l.366-.092.275-.092 1.098-.274 1.1-.275 1.098-.366 1.008-.458.274-.092.367-.183.274-.183.275-.092.275-.183.366-.183.275-.092.275-.183.915-.64.916-.642.916-.64.824-.733.275-.184.274-.274.184-.183.274-.275.275-.183.183-.275.275-.275.183-.183.733-.916.64-.824.642-.916.64-1.007.184-.275.091-.274.184-.275.183-.366.091-.275.184-.275.091-.275.183-.366.458-1.007.366-1.099.275-1.007.275-1.1.091-.366v-.274l.092-.367.092-.366v-.275l.091-.366v-.275l.092-.366v-1.099l.091-1.099-.091-1.19v-1.1l-.092-.365v-.275l-.091-.366v-.275l-.092-.366-.092-.275v-.367l-.091-.366-.275-1.007-.275-1.099-.457-1.099-.367-1.007-.183-.275-.091-.366-.184-.275-.091-.275-.183-.274-.184-.367-.091-.274-.183-.275-.641-.916-.641-1.007-.641-.824-.733-.916-.183-.183-.275-.275-.183-.275-.275-.183-.274-.275-.184-.183-.274-.275-.275-.183-.824-.732-.916-.641-.916-.641-.915-.641-.275-.184-.275-.091-.366-.183-.275-.183-.275-.092-.274-.183-.367-.183-.274-.092-1.008-.458-1.099-.366-1.099-.275-1.098-.274-.275-.092-.366-.092" stroke-width="2.06323011"/></g></svg>